<?xml version="1.0" encoding="utf-8"?>
<!-- Generator: Adobe Illustrator 19.0.0, SVG Export Plug-In . SVG Version: 6.00 Build 0)  -->
<svg version="1.1" xmlns="http://www.w3.org/2000/svg" xmlns:xlink="http://www.w3.org/1999/xlink" x="0px" y="0px"
	 viewBox="0 0 600 150" enable-background="new 0 0 600 150" xml:space="preserve">
<g id="Logo" display="none">
	<g display="inline">
		<path fill="#445A7A" d="M91.9,26.5c3.5,1,6.6,2.4,9.3,4.1l-4.9,10.1c-2.7-1.6-5.5-2.8-8.6-3.8c-3-1-5.6-1.5-7.7-1.5
			c-1.7,0-3.1,0.3-4.1,0.9c-1,0.6-1.5,1.5-1.5,2.7c0,1.6,0.8,2.8,2.4,3.7c1.6,0.9,4,1.8,7.4,2.7c3.5,1,6.4,2,8.7,3
			c2.3,1,4.2,2.5,5.9,4.6c1.7,2,2.5,4.7,2.5,8.1c0,3.3-0.9,6.1-2.7,8.4c-1.8,2.4-4.2,4.1-7.3,5.3c-3.1,1.2-6.5,1.8-10.3,1.8
			c-4.2,0-8.4-0.7-12.5-2.2c-4.1-1.5-7.7-3.4-10.7-5.9l5-10c2.6,2.2,5.6,4,9.1,5.5c3.5,1.4,6.6,2.1,9.3,2.1c2.1,0,3.7-0.4,4.9-1.1
			c1.2-0.7,1.8-1.8,1.8-3.3c0-1.7-0.8-2.9-2.4-3.8c-1.6-0.9-4.2-1.8-7.6-2.7c-3.5-1-6.3-1.9-8.6-2.9c-2.3-1-4.2-2.4-5.8-4.4
			s-2.4-4.6-2.4-7.8c0-3.1,0.8-5.8,2.5-8.1c1.7-2.3,4-4.1,7.1-5.3c3.1-1.3,6.6-1.9,10.6-1.9C84.8,25,88.3,25.5,91.9,26.5z"/>
		<path fill="#445A7A" d="M142.8,67l-3.7,9.4h-13.3l21.9-50.8h13.3l21.4,50.8h-13.8l-3.6-9.4H142.8z M154,38.4l-7.4,18.8h14.7
			L154,38.4z"/>
		<path fill="#445A7A" d="M244.8,65.6v10.8h-34.5V25.6h12.9v40H244.8z"/>
		<path fill="#445A7A" d="M317.1,66.6c-1.9,3.3-4.6,5.8-8.1,7.6c-3.5,1.8-7.6,2.7-12.3,2.7c-4.7,0-8.9-0.9-12.4-2.7
			c-3.5-1.8-6.2-4.3-8.1-7.6s-2.9-7.2-2.9-11.6V25.6h12.9V55c0,3.4,1,6.1,2.9,8.1c2,2,4.5,3,7.7,3c3.1,0,5.6-1,7.4-3
			s2.8-4.7,2.8-8.1V25.6h12.9V55C319.9,59.5,319,63.4,317.1,66.6z"/>
		<path fill="#8BB7FF" d="M370.4,31.2v45.2h-5.8V31.2h-16.5v-5.6h38.9v5.6H370.4z"/>
		<path fill="#8BB7FF" d="M424.5,31.2v16.7h25.6v5.6h-25.6v17.4h29.6v5.5h-35.4V25.6h34.5v5.6H424.5z"/>
		<path fill="#8BB7FF" d="M535.1,76.4L535,34.5L516.5,71h-3.5l-18.4-36.5v41.9h-5.5V25.6h7.2l18.6,36.6l18.5-36.6h7.1v50.8H535.1z"
			/>
	</g>
	<g display="inline">
		<path fill="#445A7A" d="M80.3,124.9l0-18.3l-8.1,16h-1.5l-8.1-16v18.3h-2.4v-22.2h3.1l8.1,16l8.1-16h3.1v22.2H80.3z"/>
		<path fill="#445A7A" d="M117.9,124.9h-2.5v-3.8c-1.1,2.5-3.2,3.8-6.4,3.9c-1.9,0-3.5-0.6-4.6-1.7c-1.1-1.2-1.7-2.8-1.7-4.8v-10.3
			h2.5v9.6c0,1.5,0.4,2.6,1.2,3.5c0.8,0.8,2,1.2,3.4,1.2c1.7,0,3.1-0.6,4-1.7c1-1.1,1.5-2.6,1.5-4.4v-8.2h2.5V124.9z"/>
		<path fill="#445A7A" d="M143.1,125c-1.3,0-2.3-0.4-3.1-1.2c-0.8-0.8-1.2-2-1.2-3.6v-9.6h-2.4v-2h2.4v-4.4h2.5v4.4l5.3,0v2h-5.3
			v9.1c0,1,0.2,1.7,0.6,2.1c0.4,0.4,0.9,0.7,1.7,0.7c0.9,0,1.8-0.3,2.7-0.9l0.7,2C145.7,124.6,144.4,125,143.1,125z"/>
		<path fill="#445A7A" d="M179.4,124.9H177v-3.8c-1.1,2.5-3.2,3.8-6.4,3.9c-1.9,0-3.5-0.6-4.6-1.7c-1.1-1.2-1.7-2.8-1.7-4.8v-10.3
			h2.5v9.6c0,1.5,0.4,2.6,1.2,3.5c0.8,0.8,2,1.2,3.4,1.2c1.7,0,3.1-0.6,4-1.7c1-1.1,1.5-2.6,1.5-4.4v-8.2h2.5V124.9z"/>
		<path fill="#445A7A" d="M212.4,110.6c1.3,1.7,1.9,4,1.8,6.9h-13.6c0.2,1.6,0.9,2.9,2,3.9c1.1,1,2.5,1.4,4.1,1.4c1,0,2-0.2,2.9-0.5
			c0.9-0.4,1.6-0.9,2.3-1.6l1.4,1.5c-0.8,0.9-1.8,1.6-2.9,2.1c-1.2,0.5-2.4,0.7-3.8,0.7c-1.6,0-3.1-0.4-4.3-1.1
			c-1.3-0.7-2.2-1.7-2.9-3c-0.7-1.3-1-2.8-1-4.4c0-1.7,0.4-3.1,1.1-4.4c0.7-1.3,1.7-2.3,3-3c1.3-0.7,2.7-1.1,4.3-1.1
			C209.1,108.1,211,108.9,212.4,110.6z M210.3,111.6c-1-0.9-2.3-1.4-3.9-1.4c-1.6,0-2.9,0.5-4,1.4c-1.1,1-1.7,2.2-1.9,3.8H212
			C211.9,113.8,211.3,112.6,210.3,111.6z"/>
		<path fill="#445A7A" d="M232.9,124.9v-23.6h2.5v23.6H232.9z"/>
		<path fill="#445A7A" d="M256,124.9v-23.6h2.5v23.6H256z"/>
		<path fill="#445A7A" d="M291.6,110.6c1.3,1.7,1.9,4,1.8,6.9h-13.6c0.2,1.6,0.9,2.9,2,3.9c1.1,1,2.5,1.4,4.1,1.4c1,0,2-0.2,2.9-0.5
			s1.6-0.9,2.3-1.6l1.4,1.5c-0.8,0.9-1.8,1.6-2.9,2.1c-1.2,0.5-2.4,0.7-3.8,0.7c-1.6,0-3.1-0.4-4.3-1.1c-1.3-0.7-2.2-1.7-2.9-3
			c-0.7-1.3-1-2.8-1-4.4c0-1.7,0.4-3.1,1.1-4.4c0.7-1.3,1.7-2.3,3-3c1.3-0.7,2.7-1.1,4.3-1.1C288.3,108.1,290.3,108.9,291.6,110.6z
			 M289.5,111.6c-1-0.9-2.3-1.4-3.9-1.4c-1.6,0-2.9,0.5-4,1.4c-1.1,1-1.7,2.2-1.9,3.8h11.4C291.1,113.8,290.5,112.6,289.5,111.6z"/>
		<path fill="#445A7A" d="M339.8,109c1-0.6,2.2-1,3.6-1v2.5c-1.7,0-3.1,0.5-4.2,1.4c-1.1,1-1.7,2.3-1.8,4v8.9h-2.5v-16.7h2.5v3.7
			C338,110.6,338.8,109.7,339.8,109z"/>
		<path fill="#445A7A" d="M373.7,110.6c1.3,1.7,1.9,4,1.8,6.9h-13.6c0.2,1.6,0.9,2.9,2,3.9c1.1,1,2.5,1.4,4.1,1.4c1,0,2-0.2,2.9-0.5
			s1.6-0.9,2.3-1.6l1.4,1.5c-0.8,0.9-1.8,1.6-2.9,2.1c-1.2,0.5-2.4,0.7-3.8,0.7c-1.6,0-3.1-0.4-4.3-1.1c-1.3-0.7-2.2-1.7-2.9-3
			c-0.7-1.3-1-2.8-1-4.4c0-1.7,0.4-3.1,1.1-4.4c0.7-1.3,1.7-2.3,3-3s2.7-1.1,4.3-1.1C370.3,108.1,372.3,108.9,373.7,110.6z
			 M371.6,111.6c-1-0.9-2.3-1.4-3.9-1.4c-1.6,0-2.9,0.5-4,1.4s-1.7,2.2-1.9,3.8h11.4C373.2,113.8,372.6,112.6,371.6,111.6z"/>
		<path fill="#445A7A" d="M398.9,125c-1.3,0-2.3-0.4-3.1-1.2c-0.8-0.8-1.2-2-1.2-3.6v-9.6h-2.4v-2h2.4v-4.4h2.4v4.4l5.3,0v2h-5.3
			v9.1c0,1,0.2,1.7,0.6,2.1c0.4,0.4,0.9,0.7,1.7,0.7c0.9,0,1.8-0.3,2.7-0.9l0.7,2C401.4,124.6,400.2,125,398.9,125z"/>
		<path fill="#445A7A" d="M425.5,109c1-0.6,2.2-1,3.6-1v2.5c-1.7,0-3.1,0.5-4.2,1.4c-1.1,1-1.7,2.3-1.8,4v8.9h-2.5v-16.7h2.5v3.7
			C423.7,110.6,424.5,109.7,425.5,109z"/>
		<path fill="#445A7A" d="M456.4,122.3c-1.3,1.8-3.4,2.7-6.1,2.7c-1.1,0-2.1-0.2-3-0.7c-0.9-0.4-1.5-1.1-2-1.8
			c-0.5-0.8-0.7-1.7-0.7-2.6c0-1.5,0.6-2.6,1.7-3.5c1.1-0.9,2.6-1.3,4.6-1.3h5.5v-1c0-1.3-0.4-2.2-1.1-2.9c-0.8-0.7-1.9-1-3.3-1
			c-1.7,0-3.5,0.6-5.3,1.9l-1-1.8c1.2-0.8,2.3-1.4,3.3-1.7c1-0.4,2.2-0.5,3.5-0.5c2.1,0,3.6,0.5,4.8,1.5c1.1,1,1.7,2.4,1.7,4.2
			l0,11.1h-2.4V122.3z M454.4,121.8c1-0.7,1.7-1.6,2-2.8v-2h-5.2c-2.8,0-4.3,0.9-4.3,2.7c0,0.9,0.3,1.7,1,2.2
			c0.7,0.6,1.6,0.8,2.8,0.8C452.1,122.8,453.4,122.5,454.4,121.8z"/>
		<path fill="#445A7A" d="M481,102.1c0.3,0.3,0.5,0.7,0.5,1.2c0,0.5-0.2,0.9-0.5,1.2c-0.3,0.3-0.7,0.5-1.2,0.5
			c-0.5,0-0.9-0.2-1.2-0.5c-0.3-0.3-0.5-0.7-0.5-1.2c0-0.5,0.2-0.9,0.5-1.2c0.3-0.3,0.7-0.5,1.2-0.5
			C480.3,101.6,480.7,101.8,481,102.1z M478.6,124.9v-16.7h2.4v16.7H478.6z"/>
		<path fill="#445A7A" d="M506.2,125c-1.3,0-2.3-0.4-3.1-1.2c-0.8-0.8-1.2-2-1.2-3.6v-9.6h-2.4v-2h2.4v-4.4h2.4v4.4l5.3,0v2h-5.3
			v9.1c0,1,0.2,1.7,0.6,2.1c0.4,0.4,0.9,0.7,1.7,0.7c0.9,0,1.8-0.3,2.7-0.9l0.7,2C508.8,124.6,507.5,125,506.2,125z"/>
		<path fill="#445A7A" d="M540.4,110.6c1.3,1.7,1.9,4,1.8,6.9h-13.6c0.2,1.6,0.9,2.9,2,3.9c1.1,1,2.5,1.4,4.1,1.4c1,0,2-0.2,2.9-0.5
			c0.9-0.4,1.6-0.9,2.3-1.6l1.4,1.5c-0.8,0.9-1.8,1.6-2.9,2.1c-1.2,0.5-2.4,0.7-3.8,0.7c-1.6,0-3.1-0.4-4.3-1.1
			c-1.3-0.7-2.2-1.7-2.9-3c-0.7-1.3-1-2.8-1-4.4c0-1.7,0.4-3.1,1.1-4.4c0.7-1.3,1.7-2.3,3-3s2.7-1.1,4.3-1.1
			C537.1,108.1,539.1,108.9,540.4,110.6z M538.4,111.6c-1-0.9-2.3-1.4-3.9-1.4c-1.6,0-2.9,0.5-4,1.4c-1.1,1-1.7,2.2-1.9,3.8H540
			C539.9,113.8,539.4,112.6,538.4,111.6z"/>
	</g>
</g>
<g id="Logo_NoTagline">
	<g>
		<path fill="#445A7A" d="M91.9,50.6c3.5,1,6.6,2.4,9.3,4.1l-4.9,10.1c-2.7-1.6-5.5-2.8-8.6-3.8c-3-1-5.6-1.5-7.7-1.5
			c-1.7,0-3.1,0.3-4.1,0.9c-1,0.6-1.5,1.5-1.5,2.7c0,1.6,0.8,2.8,2.4,3.7c1.6,0.9,4,1.8,7.4,2.7c3.5,1,6.4,2,8.7,3
			c2.3,1,4.2,2.5,5.9,4.6c1.7,2,2.5,4.7,2.5,8.1c0,3.3-0.9,6.1-2.7,8.4c-1.8,2.4-4.2,4.1-7.3,5.3c-3.1,1.2-6.5,1.8-10.3,1.8
			c-4.2,0-8.4-0.7-12.5-2.2c-4.1-1.5-7.7-3.4-10.7-5.9l5-10c2.6,2.2,5.6,4,9.1,5.5c3.5,1.4,6.6,2.1,9.3,2.1c2.1,0,3.7-0.4,4.9-1.1
			c1.2-0.7,1.8-1.8,1.8-3.3c0-1.7-0.8-2.9-2.4-3.8c-1.6-0.9-4.2-1.8-7.6-2.7c-3.5-1-6.3-1.9-8.6-2.9c-2.3-1-4.2-2.4-5.8-4.4
			s-2.4-4.6-2.4-7.8c0-3.1,0.8-5.8,2.5-8.1c1.7-2.3,4-4.1,7.1-5.3c3.1-1.3,6.6-1.9,10.6-1.9C84.8,49,88.3,49.5,91.9,50.6z"/>
		<path fill="#445A7A" d="M142.8,91l-3.7,9.4h-13.3l21.9-50.8h13.3l21.4,50.8h-13.8l-3.6-9.4H142.8z M154,62.5l-7.4,18.8h14.7
			L154,62.5z"/>
		<path fill="#445A7A" d="M244.8,89.6v10.8h-34.5V49.6h12.9v40H244.8z"/>
		<path fill="#445A7A" d="M317.1,90.7c-1.9,3.3-4.6,5.8-8.1,7.6c-3.5,1.8-7.6,2.7-12.3,2.7c-4.7,0-8.9-0.9-12.4-2.7
			c-3.5-1.8-6.2-4.3-8.1-7.6s-2.9-7.2-2.9-11.6V49.6h12.9v29.5c0,3.4,1,6.1,2.9,8.1c2,2,4.5,3,7.7,3c3.1,0,5.6-1,7.4-3
			s2.8-4.7,2.8-8.1V49.6h12.9v29.5C319.9,83.5,319,87.4,317.1,90.7z"/>
		<path fill="#8BB7FF" d="M370.4,55.2v45.2h-5.8V55.2h-16.5v-5.6h38.9v5.6H370.4z"/>
		<path fill="#8BB7FF" d="M424.5,55.2v16.7h25.6v5.6h-25.6v17.4h29.6v5.5h-35.4V49.6h34.5v5.6H424.5z"/>
		<path fill="#8BB7FF" d="M535.1,100.4L535,58.5L516.5,95h-3.5l-18.4-36.5v41.9h-5.5V49.6h7.2l18.6,36.6l18.5-36.6h7.1v50.8H535.1z"
			/>
	</g>
</g>
<g id="Logo_White" display="none">
	<g display="inline">
		<path fill="#FFFFFF" d="M91.9,26.5c3.5,1,6.6,2.4,9.3,4.1l-4.9,10.1c-2.7-1.6-5.5-2.8-8.6-3.8c-3-1-5.6-1.5-7.7-1.5
			c-1.7,0-3.1,0.3-4.1,0.9c-1,0.6-1.5,1.5-1.5,2.7c0,1.6,0.8,2.8,2.4,3.7c1.6,0.9,4,1.8,7.4,2.7c3.5,1,6.4,2,8.7,3
			c2.3,1,4.2,2.5,5.9,4.6c1.7,2,2.5,4.7,2.5,8.1c0,3.3-0.9,6.1-2.7,8.4c-1.8,2.4-4.2,4.1-7.3,5.3c-3.1,1.2-6.5,1.8-10.3,1.8
			c-4.2,0-8.4-0.7-12.5-2.2c-4.1-1.5-7.7-3.4-10.7-5.9l5-10c2.6,2.2,5.6,4,9.1,5.5c3.5,1.4,6.6,2.1,9.3,2.1c2.1,0,3.7-0.4,4.9-1.1
			c1.2-0.7,1.8-1.8,1.8-3.3c0-1.7-0.8-2.9-2.4-3.8c-1.6-0.9-4.2-1.8-7.6-2.7c-3.5-1-6.3-1.9-8.6-2.9c-2.3-1-4.2-2.4-5.8-4.4
			s-2.4-4.6-2.4-7.8c0-3.1,0.8-5.8,2.5-8.1c1.7-2.3,4-4.1,7.1-5.3c3.1-1.3,6.6-1.9,10.6-1.9C84.8,25,88.3,25.5,91.9,26.5z"/>
		<path fill="#FFFFFF" d="M142.8,67l-3.7,9.4h-13.3l21.9-50.8h13.3l21.4,50.8h-13.8l-3.6-9.4H142.8z M154,38.4l-7.4,18.8h14.7
			L154,38.4z"/>
		<path fill="#FFFFFF" d="M244.8,65.6v10.8h-34.5V25.6h12.9v40H244.8z"/>
		<path fill="#FFFFFF" d="M317.1,66.6c-1.9,3.3-4.6,5.8-8.1,7.6c-3.5,1.8-7.6,2.7-12.3,2.7c-4.7,0-8.9-0.9-12.4-2.7
			c-3.5-1.8-6.2-4.3-8.1-7.6s-2.9-7.2-2.9-11.6V25.6h12.9V55c0,3.4,1,6.1,2.9,8.1c2,2,4.5,3,7.7,3c3.1,0,5.6-1,7.4-3
			s2.8-4.7,2.8-8.1V25.6h12.9V55C319.9,59.5,319,63.4,317.1,66.6z"/>
		<path fill="#8BB7FF" d="M370.4,31.2v45.2h-5.8V31.2h-16.5v-5.6h38.9v5.6H370.4z"/>
		<path fill="#8BB7FF" d="M424.5,31.2v16.7h25.6v5.6h-25.6v17.4h29.6v5.5h-35.4V25.6h34.5v5.6H424.5z"/>
		<path fill="#8BB7FF" d="M535.1,76.4L535,34.5L516.5,71h-3.5l-18.4-36.5v41.9h-5.5V25.6h7.2l18.6,36.6l18.5-36.6h7.1v50.8H535.1z"
			/>
	</g>
	<g display="inline">
		<path fill="#FFFFFF" d="M80.3,124.9l0-18.3l-8.1,16h-1.5l-8.1-16v18.3h-2.4v-22.2h3.1l8.1,16l8.1-16h3.1v22.2H80.3z"/>
		<path fill="#FFFFFF" d="M117.9,124.9h-2.5v-3.8c-1.1,2.5-3.2,3.8-6.4,3.9c-1.9,0-3.5-0.6-4.6-1.7c-1.1-1.2-1.7-2.8-1.7-4.8v-10.3
			h2.5v9.6c0,1.5,0.4,2.6,1.2,3.5c0.8,0.8,2,1.2,3.4,1.2c1.7,0,3.1-0.6,4-1.7c1-1.1,1.5-2.6,1.5-4.4v-8.2h2.5V124.9z"/>
		<path fill="#FFFFFF" d="M143.1,125c-1.3,0-2.3-0.4-3.1-1.2c-0.8-0.8-1.2-2-1.2-3.6v-9.6h-2.4v-2h2.4v-4.4h2.5v4.4l5.3,0v2h-5.3
			v9.1c0,1,0.2,1.7,0.6,2.1c0.4,0.4,0.9,0.7,1.7,0.7c0.9,0,1.8-0.3,2.7-0.9l0.7,2C145.7,124.6,144.4,125,143.1,125z"/>
		<path fill="#FFFFFF" d="M179.4,124.9H177v-3.8c-1.1,2.5-3.2,3.8-6.4,3.9c-1.9,0-3.5-0.6-4.6-1.7c-1.1-1.2-1.7-2.8-1.7-4.8v-10.3
			h2.5v9.6c0,1.5,0.4,2.6,1.2,3.5c0.8,0.8,2,1.2,3.4,1.2c1.7,0,3.1-0.6,4-1.7c1-1.1,1.5-2.6,1.5-4.4v-8.2h2.5V124.9z"/>
		<path fill="#FFFFFF" d="M212.4,110.6c1.3,1.7,1.9,4,1.8,6.9h-13.6c0.2,1.6,0.9,2.9,2,3.9c1.1,1,2.5,1.4,4.1,1.4c1,0,2-0.2,2.9-0.5
			c0.9-0.4,1.6-0.9,2.3-1.6l1.4,1.5c-0.8,0.9-1.8,1.6-2.9,2.1c-1.2,0.5-2.4,0.7-3.8,0.7c-1.6,0-3.1-0.4-4.3-1.1
			c-1.3-0.7-2.2-1.7-2.9-3c-0.7-1.3-1-2.8-1-4.4c0-1.7,0.4-3.1,1.1-4.4c0.7-1.3,1.7-2.3,3-3c1.3-0.7,2.7-1.1,4.3-1.1
			C209.1,108.1,211,108.9,212.4,110.6z M210.3,111.6c-1-0.9-2.3-1.4-3.9-1.4c-1.6,0-2.9,0.5-4,1.4c-1.1,1-1.7,2.2-1.9,3.8H212
			C211.9,113.8,211.3,112.6,210.3,111.6z"/>
		<path fill="#FFFFFF" d="M232.9,124.9v-23.6h2.5v23.6H232.9z"/>
		<path fill="#FFFFFF" d="M256,124.9v-23.6h2.5v23.6H256z"/>
		<path fill="#FFFFFF" d="M291.6,110.6c1.3,1.7,1.9,4,1.8,6.9h-13.6c0.2,1.6,0.9,2.9,2,3.9c1.1,1,2.5,1.4,4.1,1.4c1,0,2-0.2,2.9-0.5
			s1.6-0.9,2.3-1.6l1.4,1.5c-0.8,0.9-1.8,1.6-2.9,2.1c-1.2,0.5-2.4,0.7-3.8,0.7c-1.6,0-3.1-0.4-4.3-1.1c-1.3-0.7-2.2-1.7-2.9-3
			c-0.7-1.3-1-2.8-1-4.4c0-1.7,0.4-3.1,1.1-4.4c0.7-1.3,1.7-2.3,3-3c1.3-0.7,2.7-1.1,4.3-1.1C288.3,108.1,290.3,108.9,291.6,110.6z
			 M289.5,111.6c-1-0.9-2.3-1.4-3.9-1.4c-1.6,0-2.9,0.5-4,1.4c-1.1,1-1.7,2.2-1.9,3.8h11.4C291.1,113.8,290.5,112.6,289.5,111.6z"/>
		<path fill="#FFFFFF" d="M339.8,109c1-0.6,2.2-1,3.6-1v2.5c-1.7,0-3.1,0.5-4.2,1.4c-1.1,1-1.7,2.3-1.8,4v8.9h-2.5v-16.7h2.5v3.7
			C338,110.6,338.8,109.7,339.8,109z"/>
		<path fill="#FFFFFF" d="M373.7,110.6c1.3,1.7,1.9,4,1.8,6.9h-13.6c0.2,1.6,0.9,2.9,2,3.9c1.1,1,2.5,1.4,4.1,1.4c1,0,2-0.2,2.9-0.5
			s1.6-0.9,2.3-1.6l1.4,1.5c-0.8,0.9-1.8,1.6-2.9,2.1c-1.2,0.5-2.4,0.7-3.8,0.7c-1.6,0-3.1-0.4-4.3-1.1c-1.3-0.7-2.2-1.7-2.9-3
			c-0.7-1.3-1-2.8-1-4.4c0-1.7,0.4-3.1,1.1-4.4c0.7-1.3,1.7-2.3,3-3s2.7-1.1,4.3-1.1C370.3,108.1,372.3,108.9,373.7,110.6z
			 M371.6,111.6c-1-0.9-2.3-1.4-3.9-1.4c-1.6,0-2.9,0.5-4,1.4s-1.7,2.2-1.9,3.8h11.4C373.2,113.8,372.6,112.6,371.6,111.6z"/>
		<path fill="#FFFFFF" d="M398.9,125c-1.3,0-2.3-0.4-3.1-1.2c-0.8-0.8-1.2-2-1.2-3.6v-9.6h-2.4v-2h2.4v-4.4h2.4v4.4l5.3,0v2h-5.3
			v9.1c0,1,0.2,1.7,0.6,2.1c0.4,0.4,0.9,0.7,1.7,0.7c0.9,0,1.8-0.3,2.7-0.9l0.7,2C401.4,124.6,400.2,125,398.9,125z"/>
		<path fill="#FFFFFF" d="M425.5,109c1-0.6,2.2-1,3.6-1v2.5c-1.7,0-3.1,0.5-4.2,1.4c-1.1,1-1.7,2.3-1.8,4v8.9h-2.5v-16.7h2.5v3.7
			C423.7,110.6,424.5,109.7,425.5,109z"/>
		<path fill="#FFFFFF" d="M456.4,122.3c-1.3,1.8-3.4,2.7-6.1,2.7c-1.1,0-2.1-0.2-3-0.7c-0.9-0.4-1.5-1.1-2-1.8
			c-0.5-0.8-0.7-1.7-0.7-2.6c0-1.5,0.6-2.6,1.7-3.5c1.1-0.9,2.6-1.3,4.6-1.3h5.5v-1c0-1.3-0.4-2.2-1.1-2.9c-0.8-0.7-1.9-1-3.3-1
			c-1.7,0-3.5,0.6-5.3,1.9l-1-1.8c1.2-0.8,2.3-1.4,3.3-1.7c1-0.4,2.2-0.5,3.5-0.5c2.1,0,3.6,0.5,4.8,1.5c1.1,1,1.7,2.4,1.7,4.2
			l0,11.1h-2.4V122.3z M454.4,121.8c1-0.7,1.7-1.6,2-2.8v-2h-5.2c-2.8,0-4.3,0.9-4.3,2.7c0,0.9,0.3,1.7,1,2.2
			c0.7,0.6,1.6,0.8,2.8,0.8C452.1,122.8,453.4,122.5,454.4,121.8z"/>
		<path fill="#FFFFFF" d="M481,102.1c0.3,0.3,0.5,0.7,0.5,1.2c0,0.5-0.2,0.9-0.5,1.2c-0.3,0.3-0.7,0.5-1.2,0.5
			c-0.5,0-0.9-0.2-1.2-0.5c-0.3-0.3-0.5-0.7-0.5-1.2c0-0.5,0.2-0.9,0.5-1.2c0.3-0.3,0.7-0.5,1.2-0.5
			C480.3,101.6,480.7,101.8,481,102.1z M478.6,124.9v-16.7h2.4v16.7H478.6z"/>
		<path fill="#FFFFFF" d="M506.2,125c-1.3,0-2.3-0.4-3.1-1.2c-0.8-0.8-1.2-2-1.2-3.6v-9.6h-2.4v-2h2.4v-4.4h2.4v4.4l5.3,0v2h-5.3
			v9.1c0,1,0.2,1.7,0.6,2.1c0.4,0.4,0.9,0.7,1.7,0.7c0.9,0,1.8-0.3,2.7-0.9l0.7,2C508.8,124.6,507.5,125,506.2,125z"/>
		<path fill="#FFFFFF" d="M540.4,110.6c1.3,1.7,1.9,4,1.8,6.9h-13.6c0.2,1.6,0.9,2.9,2,3.9c1.1,1,2.5,1.4,4.1,1.4c1,0,2-0.2,2.9-0.5
			c0.9-0.4,1.6-0.9,2.3-1.6l1.4,1.5c-0.8,0.9-1.8,1.6-2.9,2.1c-1.2,0.5-2.4,0.7-3.8,0.7c-1.6,0-3.1-0.4-4.3-1.1
			c-1.3-0.7-2.2-1.7-2.9-3c-0.7-1.3-1-2.8-1-4.4c0-1.7,0.4-3.1,1.1-4.4c0.7-1.3,1.7-2.3,3-3s2.7-1.1,4.3-1.1
			C537.1,108.1,539.1,108.9,540.4,110.6z M538.4,111.6c-1-0.9-2.3-1.4-3.9-1.4c-1.6,0-2.9,0.5-4,1.4c-1.1,1-1.7,2.2-1.9,3.8H540
			C539.9,113.8,539.4,112.6,538.4,111.6z"/>
	</g>
</g>
</svg>
